<svg width="125" height="85" viewBox="0 0 125 85" fill="none" xmlns="http://www.w3.org/2000/svg">
<rect y="6" width="15" height="68" fill="#020039"/>
<path d="M38.5903 35C36.3236 35 34.457 34.64 32.9903 33.92C31.5236 33.2 30.4303 32.1067 29.7103 30.64C29.017 29.1733 28.6703 27.32 28.6703 25.08C28.6703 22.84 29.017 20.9733 29.7103 19.48C30.4303 17.96 31.5236 16.8267 32.9903 16.08C34.457 15.3067 36.3236 14.92 38.5903 14.92H47.6303V32.48H42.2703V18.4L43.5903 19.56H38.5903C37.497 19.56 36.617 19.6933 35.9503 19.96C35.2836 20.2 34.7903 20.72 34.4703 21.52C34.177 22.2933 34.0303 23.48 34.0303 25.08C34.0303 26.6 34.1636 27.7467 34.4303 28.52C34.7236 29.2667 35.2036 29.76 35.8703 30C36.537 30.24 37.4436 30.36 38.5903 30.36H51.8303V35H38.5903ZM51.8303 35V30.36C51.9903 30.36 52.1103 30.4133 52.1903 30.52C52.297 30.6267 52.377 30.7867 52.4303 31C52.5103 31.2133 52.5636 31.4667 52.5903 31.76C52.617 32.0267 52.6303 32.3333 52.6303 32.68C52.6303 33.0267 52.617 33.3467 52.5903 33.64C52.5636 33.9333 52.5103 34.1867 52.4303 34.4C52.377 34.5867 52.297 34.7333 52.1903 34.84C52.1103 34.9467 51.9903 35 51.8303 35ZM32.6303 11.24V6.68H37.7903V11.24H32.6303ZM39.9103 11.24V6.68H45.0703V11.24H39.9103ZM51.8359 35V30.36H61.3159L58.1959 32.96V14.92H63.5159V35H51.8359ZM51.8359 35C51.6759 35 51.5559 34.9467 51.4759 34.84C51.3693 34.7333 51.2893 34.5867 51.2359 34.4C51.1559 34.1867 51.1026 33.9333 51.0759 33.64C51.0493 33.3467 51.0359 33.0267 51.0359 32.68C51.0359 32.2 51.0626 31.8 51.1159 31.48C51.1693 31.1333 51.2626 30.8667 51.3959 30.68C51.5026 30.4667 51.6493 30.36 51.8359 30.36V35ZM53.2759 43.52V38.96H58.4359V43.52H53.2759ZM60.5559 43.52V38.96H65.7159V43.52H60.5559ZM84.2853 35V30.36H88.4853V35H84.2853ZM68.0453 35V30.36H82.5653L78.9253 33.52V26.8C78.9253 24.9067 78.7253 23.44 78.3253 22.4C77.952 21.36 77.312 20.6267 76.4053 20.2C75.5253 19.7733 74.312 19.56 72.7653 19.56H69.5253V14.92H72.7653C75.2186 14.92 77.2986 15.32 79.0053 16.12C80.7386 16.92 82.0453 18.2 82.9253 19.96C83.832 21.6933 84.2853 23.9733 84.2853 26.8V35H68.0453ZM88.4853 35V30.36C88.6453 30.36 88.7786 30.4133 88.8853 30.52C88.992 30.6267 89.072 30.7867 89.1253 31C89.1786 31.2133 89.2186 31.4667 89.2453 31.76C89.272 32.0267 89.2853 32.3333 89.2853 32.68C89.2853 33.0267 89.272 33.3467 89.2453 33.64C89.2186 33.9333 89.1786 34.1867 89.1253 34.4C89.072 34.5867 88.992 34.7333 88.8853 34.84C88.7786 34.9467 88.6453 35 88.4853 35ZM88.4766 35V30.36H98.4766V35H88.4766ZM98.4766 35V30.36C98.6366 30.36 98.7566 30.4133 98.8366 30.52C98.9432 30.6267 99.0232 30.7867 99.0766 31C99.1566 31.2133 99.2099 31.4667 99.2366 31.76C99.2632 32.0267 99.2766 32.3333 99.2766 32.68C99.2766 33.0267 99.2632 33.3467 99.2366 33.64C99.2099 33.9333 99.1566 34.1867 99.0766 34.4C99.0232 34.5867 98.9432 34.7333 98.8366 34.84C98.7566 34.9467 98.6366 35 98.4766 35ZM88.4766 35C88.3166 35 88.1966 34.9467 88.1166 34.84C88.0099 34.7333 87.9299 34.5867 87.8766 34.4C87.7966 34.1867 87.7432 33.9333 87.7166 33.64C87.6899 33.3467 87.6766 33.0267 87.6766 32.68C87.6766 32.2 87.7032 31.8 87.7566 31.48C87.8099 31.1333 87.9032 30.8667 88.0366 30.68C88.1432 30.4667 88.2899 30.36 88.4766 30.36V35ZM108.357 35V30.36H112.557V35H108.357ZM98.4766 35C98.3166 35 98.1966 34.9467 98.1166 34.84C98.0099 34.7333 97.9299 34.5867 97.8766 34.4C97.7966 34.1867 97.7432 33.9333 97.7166 33.64C97.6899 33.3467 97.6766 33.0267 97.6766 32.68C97.6766 32.2 97.7032 31.8 97.7566 31.48C97.8099 31.1333 97.9032 30.8667 98.0366 30.68C98.1432 30.4667 98.2899 30.36 98.4766 30.36V35ZM102.997 35V6.72H108.357V35H102.997ZM98.4766 35V30.36H102.997V35H98.4766ZM112.557 35V30.36C112.717 30.36 112.85 30.4133 112.957 30.52C113.063 30.6267 113.143 30.7867 113.197 31C113.25 31.2133 113.29 31.4667 113.317 31.76C113.343 32.0267 113.357 32.3333 113.357 32.68C113.357 33.0267 113.343 33.3467 113.317 33.64C113.29 33.9333 113.25 34.1867 113.197 34.4C113.143 34.5867 113.063 34.7333 112.957 34.84C112.85 34.9467 112.717 35 112.557 35ZM112.539 35V30.36H119.859L116.739 32.96V14.92H122.099V35H112.539ZM112.539 35C112.379 35 112.259 34.9467 112.179 34.84C112.072 34.7333 111.992 34.5867 111.939 34.4C111.859 34.1867 111.806 33.9333 111.779 33.64C111.752 33.3467 111.739 33.0267 111.739 32.68C111.739 32.2 111.766 31.8 111.819 31.48C111.872 31.1333 111.966 30.8667 112.099 30.68C112.206 30.4667 112.352 30.36 112.539 30.36V35ZM116.739 43.52V38.96H122.099V43.52H116.739ZM39.5669 75C37.3002 75 35.4335 74.64 33.9669 73.92C32.5002 73.2 31.4069 72.1067 30.6869 70.64C29.9935 69.1733 29.6469 67.32 29.6469 65.08C29.6469 62.84 29.9935 60.9733 30.6869 59.48C31.4069 57.96 32.5002 56.8267 33.9669 56.08C35.4335 55.3067 37.3002 54.92 39.5669 54.92H48.6069V72.48H43.2469V58.4L44.5669 59.56H39.5669C38.4735 59.56 37.5935 59.6933 36.9269 59.96C36.2602 60.2 35.7669 60.72 35.4469 61.52C35.1535 62.2933 35.0069 63.48 35.0069 65.08C35.0069 66.6 35.1402 67.7467 35.4069 68.52C35.7002 69.2667 36.1802 69.76 36.8469 70C37.5135 70.24 38.4202 70.36 39.5669 70.36H52.8069V75H39.5669ZM52.8069 75V70.36C52.9669 70.36 53.0869 70.4133 53.1669 70.52C53.2735 70.6267 53.3535 70.7867 53.4069 71C53.4869 71.2133 53.5402 71.4667 53.5669 71.76C53.5935 72.0267 53.6069 72.3333 53.6069 72.68C53.6069 73.0267 53.5935 73.3467 53.5669 73.64C53.5402 73.9333 53.4869 74.1867 53.4069 74.4C53.3535 74.5867 53.2735 74.7333 53.1669 74.84C53.0869 74.9467 52.9669 75 52.8069 75ZM33.6069 51.24V46.68H38.7669V51.24H33.6069ZM40.8869 51.24V46.68H46.0469V51.24H40.8869ZM52.8125 75V70.36H60.1325L57.0125 72.96V54.92H62.3725V75H52.8125ZM52.8125 75C52.6525 75 52.5325 74.9467 52.4525 74.84C52.3458 74.7333 52.2658 74.5867 52.2125 74.4C52.1325 74.1867 52.0792 73.9333 52.0525 73.64C52.0258 73.3467 52.0125 73.0267 52.0125 72.68C52.0125 72.2 52.0392 71.8 52.0925 71.48C52.1458 71.1333 52.2392 70.8667 52.3725 70.68C52.4792 70.4667 52.6258 70.36 52.8125 70.36V75ZM57.0125 83.52V78.96H62.3725V83.52H57.0125ZM83.9134 75V54.92H89.2734V72.96L86.1534 70.36H93.4734V75H83.9134ZM75.5134 63.56V58.88H83.9134V63.56H75.5134ZM66.7934 84.92C66.4468 84.92 66.0734 84.9067 65.6734 84.88C65.2734 84.8533 64.8601 84.8133 64.4334 84.76L64.6334 80.2C65.0601 80.2267 65.4601 80.2533 65.8334 80.28C66.2334 80.3067 66.5268 80.32 66.7134 80.32C67.7534 80.32 68.5801 79.9067 69.1934 79.08C69.8334 78.2533 70.1534 77.0933 70.1534 75.6V54.92H75.5134V75.6C75.5134 77.4133 75.1401 79.0267 74.3934 80.44C73.6734 81.8533 72.6601 82.9467 71.3534 83.72C70.0468 84.52 68.5268 84.92 66.7934 84.92ZM93.4734 75V70.36C93.6334 70.36 93.7668 70.4133 93.8734 70.52C93.9801 70.6267 94.0601 70.7867 94.1134 71C94.1668 71.2133 94.2068 71.4667 94.2334 71.76C94.2601 72.0267 94.2734 72.3333 94.2734 72.68C94.2734 73.0267 94.2601 73.3467 94.2334 73.64C94.2068 73.9333 94.1668 74.1867 94.1134 74.4C94.0601 74.5867 93.9801 74.7333 93.8734 74.84C93.7668 74.9467 93.6334 75 93.4734 75ZM83.9134 83.52V78.96H89.2734V83.52H83.9134ZM93.4766 75V70.36H121.397L116.877 74.28V65.88C116.877 64.36 116.677 63.1467 116.277 62.24C115.877 61.3067 115.29 60.6267 114.517 60.2C113.77 59.7733 112.863 59.56 111.797 59.56C110.65 59.56 109.57 59.7867 108.557 60.24C107.543 60.6933 106.583 61.28 105.677 62C104.797 62.72 103.983 63.4933 103.237 64.32C102.49 65.1467 101.823 65.9467 101.237 66.72C100.65 67.4667 100.143 68.1067 99.7166 68.64L98.5166 64.76C99.6099 63.3733 100.623 62.08 101.557 60.88C102.517 59.68 103.517 58.64 104.557 57.76C105.597 56.8533 106.743 56.16 107.997 55.68C109.25 55.1733 110.703 54.92 112.357 54.92C114.143 54.92 115.65 55.2267 116.877 55.84C118.13 56.4267 119.157 57.24 119.957 58.28C120.757 59.32 121.33 60.4933 121.677 61.8C122.023 63.1067 122.197 64.4667 122.197 65.88V75H93.4766ZM96.2366 70.36V46.72H101.557V70.36H96.2366ZM93.4766 75C93.3166 75 93.1966 74.9467 93.1166 74.84C93.0099 74.7333 92.9299 74.5867 92.8766 74.4C92.7966 74.1867 92.7432 73.9333 92.7166 73.64C92.6899 73.3467 92.6766 73.0267 92.6766 72.68C92.6766 72.2 92.7032 71.8 92.7566 71.48C92.8099 71.1333 92.9032 70.8667 93.0366 70.68C93.1432 70.4667 93.2899 70.36 93.4766 70.36V75Z" fill="#020039"/>
</svg>